# xmcd CD database file
#
# Track frame offsets:
#	150
#	23896
#	34197
#	49466
#	68831
#	85899
#	98910
#	112764
#	129805
#	151227
#	163329
#	180448
#	197791
#	217959
#	245415
#	261694
#	278076
#	292674
#	308524
#
# Disc length: 4330 seconds
#
# Revision: 0
# Processed by: cddbd v1.4PL0 Copyright (c) Steve Scherf et al.
# Submitted via: CDex 1.50
#
DISCID=0410e813
DTITLE=Високосный год - Приносящий удачу
DYEAR=1900
DGENRE=Blues
TTITLE0=Приносящий удачу
TTITLE1=Кино
TTITLE2=Журавли
TTITLE3=Тихий огонёк
TTITLE4=Метро
TTITLE5=Лучшая песня о любви
TTITLE6=Некий никто
TTITLE7=Фонарики
TTITLE8=Шестой день осени
TTITLE9=Подожди
TTITLE10=21-й встречный
TTITLE11=Прилёг и задремел
TTITLE12=1637
TTITLE13=Metrojazz
TTITLE14=Ненужная песенка
TTITLE15=Звёздочка
TTITLE16=Красная стрела
TTITLE17=К другу
TTITLE18=Прости меня
EXTD=
EXTT0=
EXTT1=
EXTT2=
EXTT3=
EXTT4=
EXTT5=
EXTT6=
EXTT7=
EXTT8=
EXTT9=
EXTT10=
EXTT11=
EXTT12=
EXTT13=
EXTT14=
EXTT15=
EXTT16=
EXTT17=
EXTT18=
PLAYORDER=
